<?xml version="1.0" encoding="UTF-8" standalone="no"?>
<svg
   xmlns:dc="http://purl.org/dc/elements/1.1/"
   xmlns:cc="http://creativecommons.org/ns#"
   xmlns:rdf="http://www.w3.org/1999/02/22-rdf-syntax-ns#"
   xmlns:svg="http://www.w3.org/2000/svg"
   xmlns="http://www.w3.org/2000/svg"
   xmlns:sodipodi="http://sodipodi.sourceforge.net/DTD/sodipodi-0.dtd"
   xmlns:inkscape="http://www.inkscape.org/namespaces/inkscape"
   viewBox="0 0 22 22"
   fill="#ffffff"
   fill-rule="evenodd"
   stroke="#000000"
   stroke-linecap="round"
   stroke-linejoin="round"
   version="1.1"
   id="svg7"
   sodipodi:docname="tunnel-paused-light.svg"
   width="22"
   height="22"
   inkscape:version="1.0.1 (1.0.1+r73)">
  <metadata
     id="metadata13">
    <rdf:RDF>
      <cc:Work
         rdf:about="">
        <dc:format>image/svg+xml</dc:format>
        <dc:type
           rdf:resource="http://purl.org/dc/dcmitype/StillImage" />
        <dc:title></dc:title>
      </cc:Work>
    </rdf:RDF>
  </metadata>
  <defs
     id="defs11" />
  <sodipodi:namedview
     pagecolor="#ffffff"
     bordercolor="#666666"
     borderopacity="1"
     objecttolerance="10"
     gridtolerance="10"
     guidetolerance="10"
     inkscape:pageopacity="0"
     inkscape:pageshadow="2"
     inkscape:window-width="1364"
     inkscape:window-height="752"
     id="namedview9"
     showgrid="false"
     inkscape:zoom="12.814453"
     inkscape:cx="4.1517604"
     inkscape:cy="22.929676"
     inkscape:window-x="290"
     inkscape:window-y="146"
     inkscape:window-maximized="0"
     inkscape:current-layer="svg7"
     inkscape:document-rotation="0" />
  <symbol
     id="A"
     overflow="visible">
    <path
       d="M 63.945,31.053 C 63.945,31.053 65.425,0 31.297,0 1.115,0 0.172,29.788 0.172,29.788 0.172,29.788 -4.268,64 31.992,64 66.769,64 63.945,31.053 63.945,31.053 Z M 21.748,20.203 c 6.404,-3.918 14.585,-1.523 17.65,4.368 0.58,1.117 0.655,2.835 0.287,4.007 -1.27,4.044 -4.27,6.312 -8.386,7.275 1.214,-1.04 2.18,-2.217 2.487,-3.845 a 5.63,5.63 0 0 0 -0.969,-4.471 5.71,5.71 0 0 0 -6.573,-2.003 c -2.535,0.962 -3.923,3.275 -3.673,6.12 0.232,2.64 2.237,4.353 5.986,5.003 l -1.414,0.75 c -1.718,0.94 -3.212,2.24 -4.383,3.812 -0.38,0.514 -0.642,0.555 -1.222,0.2 -7.54,-4.6 -8.023,-16.18 0.2,-21.216 z M 16.106,48.7 c -1.2,0.307 -2.385,0.762 -3.623,1.17 0.606,-4.085 5.4,-7.848 9.436,-7.42 a 10.43,10.43 0 0 0 -1.972,5.524 c -1.344,0.248 -2.6,0.414 -3.84,0.726 z M 41.874,8.8 c 1.197,0.044 2.396,0.026 3.593,0.054 a 6.19,6.19 0 0 1 0.889,0.124 9.42,9.42 0 0 1 -0.904,1.16 c -0.428,0.4 -0.912,0.8 -1.53,0.183 -0.148,-0.146 -0.5,-0.112 -0.757,-0.116 -1.2,-0.016 -2.383,-0.054 -3.572,-0.01 -1.032,0.033 -2.06,0.138 -3.077,0.314 -0.2,0.034 -0.476,0.668 -0.388,0.902 0.207,0.552 0.508,1.16 0.955,1.512 1.65,1.303 3.407,2.474 5.066,3.768 1.612,1.258 3.112,2.636 4.027,4.534 1.2,2.473 1.226,5.065 0.712,7.67 -0.858,4.347 -3.058,7.95 -6.62,10.565 -1.435,1.054 -3.213,1.652 -4.857,2.4 -1.446,0.666 -2.934,1.24 -4.384,1.9 -2.613,1.188 -4.082,4.024 -3.65,6.973 0.396,2.706 2.77,4.964 5.5,5.43 3.262,0.56 6.628,-1.56 7.426,-4.877 0.897,-3.73 -1.128,-7.058 -4.92,-8.067 L 34.7,43.043 c 1.014,-0.453 1.9,-0.776 2.7,-1.22 q 2.117,-1.165 4.156,-2.467 c 0.4,-0.256 0.616,-0.256 0.957,0.04 2.608,2.255 4.164,5.06 4.6,8.5 0.722,5.693 -1.973,10.922 -7.055,13.602 -7.863,4.147 -17.486,-0.573 -19.222,-9.3 -1.488,-7.467 3.782,-14.24 10.125,-15.548 2.728,-0.562 5.222,-1.698 7.162,-3.8 1.25,-1.356 1.858,-2.52 2.064,-3.043 a 8.44,8.44 0 0 0 0.58,-3.087 7.23,7.23 0 0 0 -0.633,-2.645 c -0.662,-1.5 -3.2,-3.9 -3.827,-4.417 l -5.973,-4.676 c -0.2,-0.173 -0.448,-0.16 -0.962,-0.126 -0.6,0.04 -2.17,0.128 -2.844,-0.05 0.545,-0.412 2.03,-1.012 2.667,-1.495 -1.936,-1.308 -4.145,-0.835 -6.174,-1.226 0.47,-0.874 2.8,-2.217 4.1,-2.366 -0.078,-0.737 -0.198,-1.47 -0.36,-2.193 -0.08,-0.297 -0.412,-0.585 -0.7,-0.754 -0.7,-0.4 -1.444,-0.75 -2.25,-1.16 a 4.68,4.68 0 0 1 2.417,-0.748 c 0.814,-0.03 1.628,0.048 2.42,0.236 1.438,0.33 2.586,0.114 3.73,-0.864 C 31.478,3.873 30.578,3.542 29.703,3.15 28.846,2.76 28.01,2.325 27.2,1.846 29.466,2.161 31.658,3.01 33.975,2.7 q 0.03,-0.158 0.06,-0.316 l -5.4,-1.244 c 3.2,-0.293 6.195,-0.342 9.025,1.036 0.796,0.388 1.63,0.7 2.392,1.15 0.372,0.216 0.623,0.642 0.928,0.973 0.242,0.263 0.437,0.615 0.735,0.774 1.13,0.6 2.375,0.625 3.643,0.595 l 0.028,-0.425 c 1.276,0.4 2.712,1.87 2.7,2.945 -2.067,0 -4.133,-0.008 -6.2,0.01 -0.22,0.002 -0.44,0.163 -0.66,0.25 0.2,0.122 0.414,0.34 0.628,0.35 z M 39.207,5.74 c -0.085,0.053 -0.14,0.143 -0.147,0.243 a 0.32,0.32 0 0 0 0.107,0.263 0.48,0.48 0 0 0 0.29,0.225 c 0.122,0.033 0.254,0.015 0.364,-0.05 l 0.635,-0.334 -0.5,-0.434 C 39.676,5.421 39.442,5.567 39.216,5.74 Z"
       stroke="none"
       fill="#88171a"
       fill-rule="nonzero"
       id="path4" />
  </symbol>
  <path
     id="path970"
     style="fill:#7c7c7c;fill-opacity:1;stroke:none;stroke-width:15.1625;stroke-linecap:round"
     d="M 11,0.99999991 A 6.6669883,6.6669883 0 0 0 4.3325289,7.6674706 V 21 l 0.185677,-0.277309 V 7.7591031 A 6.4817942,6.4817942 0 0 1 11,1.2773089 6.4817942,6.4817942 0 0 1 17.481794,7.7591031 V 20.722691 L 17.667471,21 V 7.6674706 A 6.6669883,6.6669883 0 0 0 11,0.99999991 Z M 11,1.7402942 A 6.1731373,6.1731373 0 0 0 4.8268629,7.9134316 V 20.259706 l 4.93851,-7.492163 v -2.469255 c 0,-0.6818657 0.5527611,-1.2346275 1.2346271,-1.2346273 0.681866,0 1.234627,0.5527616 1.234627,1.2346273 v 2.469255 l 4.93851,7.492163 V 7.9134316 A 6.1731373,6.1731373 0 0 0 11,1.7402942 Z M 9.8328919,12.996624 9.4350129,13.59947 h 3.1299741 l -0.397879,-0.602846 z m -0.892212,1.352786 -0.696889,1.056184 H 13.75621 L 13.05932,14.34941 Z m -1.102002,1.671087 -1.188811,1.803714 h 8.7002661 l -1.188811,-1.803714 z m -1.678321,2.546419 -0.991077,1.504702 -0.465397,0.6993 H 17.296117 l -0.465396,-0.6993 -0.991078,-1.504702 z" />
</svg>
